HIERARCHY
ROOT Hips
{
  OFFSET 40.9192 92.6879 18.85
  CHANNELS 6 Xposition Yposition Zposition Zrotation Xrotation Yrotation
  JOINT LeftUpLeg
  {
    OFFSET 8.64259 1.95398 -2.38835
    CHANNELS 3 Zrotation Xrotation Yrotation
    JOINT LeftLeg
    {
      OFFSET 43.7702 0 0
      CHANNELS 3 Zrotation Xrotation Yrotation
      JOINT LeftFoot
      {
        OFFSET 40.6238 0 0
        CHANNELS 3 Zrotation Xrotation Yrotation
        JOINT LeftToeBase
        {
          OFFSET 12.7242 0 0
          CHANNELS 3 Zrotation Xrotation Yrotation
          End Site
          {
            OFFSET 0 0 0
          }
        }
      }
    }
  }
  JOINT RightUpLeg
  {
    OFFSET -8.2249 1.95398 -2.59336
    CHANNELS 3 Zrotation Xrotation Yrotation
    JOINT RightLeg
    {
      OFFSET 43.5653 0 0
      CHANNELS 3 Zrotation Xrotation Yrotation
      JOINT RightFoot
      {
        OFFSET 40.6238 0 0
        CHANNELS 3 Zrotation Xrotation Yrotation
        JOINT RightToeBase
        {
          OFFSET 12.7242 0 0
          CHANNELS 3 Zrotation Xrotation Yrotation
          End Site
          {
            OFFSET 0 0 0
          }
        }
      }
    }
  }
  JOINT Spine
  {
    OFFSET 0.165834 0.87714 6.61349
    CHANNELS 3 Zrotation Xrotation Yrotation
    JOINT Spine1
    {
      OFFSET 7.38963 1.71661e-005 0
      CHANNELS 3 Zrotation Xrotation Yrotation
      JOINT Spine2
      {
        OFFSET 11.9445 1.14441e-005 0
        CHANNELS 3 Zrotation Xrotation Yrotation
        JOINT Spine3
        {
          OFFSET 14.7254 4.19617e-005 0
          CHANNELS 3 Zrotation Xrotation Yrotation
          JOINT Spine4
          {
            OFFSET 10.9679 0 0
            CHANNELS 3 Zrotation Xrotation Yrotation
            JOINT RightShoulder
            {
              OFFSET 2.46616 -1.6653 3.69651
              CHANNELS 3 Zrotation Xrotation Yrotation
              JOINT RightArm
              {
                OFFSET 13.0012 0 0
                CHANNELS 3 Zrotation Xrotation Yrotation
                JOINT RightForeArm
                {
                  OFFSET 28.7848 1.52588e-005 0
                  CHANNELS 3 Zrotation Xrotation Yrotation
                  JOINT RightHand
                  {
                    OFFSET 26.5688 1.52588e-005 0
                    CHANNELS 3 Zrotation Xrotation Yrotation
                    End Site
                    {
                      OFFSET 0 0 0
                    }
                  }
                }
              }
            }
            JOINT LeftShoulder
            {
              OFFSET 2.38034 -1.29275 -3.7523
              CHANNELS 3 Zrotation Xrotation Yrotation
              JOINT LeftArm
              {
                OFFSET 16.3182 6.10351e-005 0
                CHANNELS 3 Zrotation Xrotation Yrotation
                JOINT LeftForeArm
                {
                  OFFSET 27.0901 0 0
                  CHANNELS 3 Zrotation Xrotation Yrotation
                  JOINT LeftHand
                  {
                    OFFSET 24.5451 1.52588e-005 0
                    CHANNELS 3 Zrotation Xrotation Yrotation
                    End Site
                    {
                      OFFSET 0 0 0
                    }
                  }
                }
              }
            }
            JOINT Neck
            {
              OFFSET 5.0226 -0.0266342 0
              CHANNELS 3 Zrotation Xrotation Yrotation
              JOINT Head
              {
                OFFSET 6.69363 2.86102e-005 0
                CHANNELS 3 Zrotation Xrotation Yrotation
                End Site
                {
                  OFFSET 0 0 0
                }
              }
            }
          }
        }
      }
    }
  }
}
MOTION
Frames:	12
Frame Time:	0.0416667
-68.6174 93.3239 -84.5085 97.721 -38.1116 93.946 -171.781 -2.60754 93.312 -44.4034 23.5226 0.261946 54.6057 -2.57349 -0.590751 47.6715 16.7195 11.2782 174.222 21.8263 90.7585 -28.9259 0.206254 0.949248 60.9579 -0.638924 -0.227034 33.5626 0.270868 -3.35995 -0.794663 7.91262 -90.2189 11.0453 -1.68324 -0.272654 -0.624643 -1.69362 -0.198296 -23.1667 -1.52345 -0.766033 -3.15407 -1.52347 -0.766045 94.6251 -50.951 -93.5633 28.3489 -4.79263 15.9501 -7.84535 -29.0399 -35.9058 0.896596 -0.507729 7.76663 -95.3847 -47.1635 69.8643 -18.3156 13.0103 0.606411 9.19265 3.85497 -60.2238 19.2078 1.62351 4.61435 -13.4226 1.14166 4.35633 -8.31414 1.08003 3.05552 
-63.8746 93.7384 -79.2692 98.2546 -37.7329 95.4453 -170.538 6.92741 95.6681 -58.93 16.5246 -0.0816494 45.6285 -8.05956 -2.85013 42.5919 12.2684 14.0053 173.639 18.3941 92.0152 -33.1295 0.834495 2.03134 67.3085 -2.492 -1.30303 25.8284 0.0040286 -1.54923 -0.471465 8.09343 -90.4173 10.6829 -1.13107 -0.727101 -0.987747 -1.16196 -0.676613 -23.5239 -0.860256 -1.03341 -3.51126 -0.860257 -1.03341 93.7253 -50.1578 -95.0667 28.3766 -4.81037 12.6271 -6.95703 -26.3958 -36.089 -2.49066 -0.688269 6.31908 -96.6629 -47.8296 68.1553 -20.4072 13.3392 1.78157 8.0816 4.40409 -56.5069 17.5654 1.29406 3.47956 -13.6155 -0.0528782 3.74783 -5.87703 -0.0498527 1.91602 
-59.7231 94.9725 -74.5053 97.7293 -38.1706 93.9965 -168.274 16.3441 93.6113 -59.7088 12.7959 -1.96153 50.5512 -4.43753 0.374181 39.4834 9.10322 12.8169 173.476 14.2795 91.5425 -32.3323 0.622101 1.63208 69.6971 -3.3573 -1.72338 26.5711 0.0345901 -1.73478 -0.0554782 8.26596 -90.2951 10.341 -0.24587 -0.564892 -1.33005 -0.270463 -0.553539 -23.8643 -0.0647054 -0.612663 -3.8516 -0.0647088 -0.612671 92.5829 -49.6797 -96.9141 26.681 -5.58825 8.18616 -6.22022 -23.4396 -39.7354 -4.68288 -0.770105 5.45864 -97.2973 -48.1231 67.3059 -21.5263 14.9181 2.22221 8.87469 6.19601 -54.4019 16.3006 1.19981 3.4663 -14.146 -1.92362 2.87984 -2.47994 -1.89646 0.56145 
-55.7235 95.637 -70.2459 96.2513 -39.8491 93.0586 -167.627 21.2253 91.912 -45.7505 8.58829 -3.92835 57.7861 -0.10097 -1.15901 39.9863 9.7094 14.5413 174.065 11.245 92.2467 -31.266 0.284922 1.0412 71.4141 -4.30714 -2.17521 27.6798 0.162762 -2.92691 0.41993 8.37462 -90.2984 10.1264 0.700844 -0.651284 -1.5445 0.671535 -0.681516 -24.0807 0.864197 -0.410534 -4.06804 0.864184 -0.410539 91.8587 -48.2463 -98.324 23.7169 -5.8197 2.0415 -6.82441 -22.4115 -43.3305 -6.52734 -0.818736 4.42489 -96.5578 -48.1688 68.4241 -23.815 15.3735 3.32083 9.4135 6.70915 -54.3819 16.049 1.24637 3.86036 -14.2156 -3.63212 3.15587 0.0925872 -3.67596 -1.21886 
-51.4793 95.2735 -66.4032 94.2052 -40.3281 91.9792 -169.34 21.8459 91.213 -20.7509 4.27002 -4.91284 56.7286 -1.89278 -1.42809 41.3159 10.886 12.8487 174.359 9.41121 92.8121 -32.3028 0.613021 0.706445 75.1357 -6.09787 -2.90258 28.9568 0.2929 -4.57773 0.712449 8.42792 -90.3152 10.0222 1.27646 -0.731346 -1.64842 1.24304 -0.786828 -24.188 1.43723 -0.313857 -4.1754 1.43723 -0.313854 91.2575 -47.3221 -99.4717 20.3633 -4.68137 -3.28599 -7.60121 -20.7721 -46.3038 -9.11689 -0.80895 2.6057 -96.1595 -48.0291 68.9743 -24.9204 15.6252 4.63121 9.08712 6.00493 -55.2508 15.4453 1.15892 3.58641 -13.5962 -4.87157 3.3432 1.58791 -5.03232 -2.65819 
-46.8157 93.8486 -62.9063 92.8794 -40.8789 92.0995 -171.119 23.1623 91.964 -5.6091 3.8232 -4.37907 45.7045 -10.4092 -7.84302 38.8045 8.3692 11.4913 175.365 9.13968 94.1918 -37.4262 2.46846 -0.0490804 78.2849 -7.80278 -3.49611 34.1451 0.357016 -4.41905 0.951725 8.55485 -90.3789 9.77107 1.72561 -0.889082 -1.8991 1.68483 -0.964188 -24.4429 1.913 -0.329207 -4.43031 1.91303 -0.329207 90.6787 -46.088 -100.682 18.2781 -2.9569 -7.58584 -7.43151 -17.8998 -48.191 -11.2546 -0.759952 1.33354 -96.3445 -47.9986 68.6879 -24.1798 15.9587 4.68817 10.1322 5.9001 -57.0298 13.8926 1.03936 3.52608 -11.4198 -5.53105 3.55298 1.95842 -5.81376 -3.60433 
-42.8874 91.8597 -59.5594 93.6202 -39.1809 92.869 -168.544 27.3125 90.8667 -15.7098 7.11298 -7.03532 50.0106 -8.03009 -3.36688 22.0083 -6.54791 5.60646 174.26 12.9438 94.2358 -51.7127 2.78144 0.412346 75.082 -6.8788 -3.29884 43.167 0.355908 -5.91167 0.835386 8.9254 -90.3234 9.02804 1.52199 -0.746313 -2.64227 1.48765 -0.812587 -25.1843 1.67589 -0.254281 -5.1716 1.67589 -0.254281 89.0714 -46.5266 -103.141 14.69 -0.614186 -11.7543 -6.54134 -17.1279 -47.8437 -9.4059 -0.605461 0.468432 -96.5229 -46.7658 68.0079 -22.494 16.7896 1.93879 8.43731 5.00431 -57.1071 16.6124 1.2368 3.55593 -10.2083 -5.77441 2.36044 3.56056 -6.14254 -4.1079 
-40.0551 89.6024 -57.0015 91.7303 -40.3211 89.1719 -165.322 33.751 88.2531 -30.8878 8.00627 -9.24793 58.5359 -1.23725 1.52503 19.2946 -8.068 2.04304 174.523 30.4724 91.3778 -75.2337 -1.06962 -1.10026 59.6153 -2.82748 -1.81787 41.2485 0.362215 -5.58334 0.937453 9.27266 -89.9323 8.32754 1.90077 0.0185072 -3.34202 1.89973 -0.0652127 -25.8874 1.80729 0.589097 -5.87477 1.8073 0.589098 88.2558 -45.2603 -104.802 13.7508 1.69015 -14.8791 -6.56877 -16.2064 -47.3826 -8.89226 -0.598348 0.657089 -97.2137 -45.1688 66.3953 -18.4529 17.7086 -4.18911 7.7811 4.39572 -58.219 18.0808 1.34946 3.59951 -7.64654 -6.51629 2.17585 4.55627 -6.97303 -4.43441 
-38.3966 88.2251 -55.5893 88.8929 -39.073 87.9457 -161.72 38.7064 86.9261 -38.5328 10.7748 -9.613 61.4342 2.24051 2.96797 21.6183 -5.99888 1.42902 172.723 42.2449 91.5122 -75.3107 2.99117 -0.399296 65.8382 -5.04592 -2.8531 41.2776 0.335444 -5.33938 1.04479 9.67507 -90.0612 7.52805 2.05973 -0.22666 -4.14128 2.04774 -0.317136 -26.6895 2.03258 0.403119 -6.67682 2.03258 0.40311 87.6284 -42.6464 -106.631 13.6082 4.44283 -17.5892 -5.53755 -14.8991 -44.8587 -9.00467 -0.568575 0.427097 -98.8352 -44.5578 63.68 -10.2071 18.43 -15.5955 7.30378 5.0011 -57.6439 20.9794 1.52893 3.45435 -4.88055 -7.78187 3.97909 3.43271 -8.43345 -5.64013 
-37.056 86.5379 -54.376 86.117 -37.155 87.9659 -158.362 44.1485 85.8166 -46.2651 13.0857 -9.12706 65.1149 6.16479 3.12557 21.8992 -5.71064 1.1528 171.912 47.2911 91.3412 -60.1347 2.80727 0.706761 66.7585 -4.39028 -2.40225 45.0233 0.127135 -9.24591 1.10271 10.0314 -90.3753 6.81769 2.04205 -0.821682 -4.85197 2.0039 -0.910797 -27.3998 2.19456 -0.169697 -7.38714 2.19456 -0.169714 86.6407 -40.9361 -108.859 11.1221 6.08373 -19.3771 -3.85523 -13.5305 -42.3386 -8.22541 -0.402634 -1.2547 -99.5081 -43.6755 62.2868 -4.45589 16.4148 -25.8491 7.0627 4.34855 -58.6222 17.7985 1.30272 3.44691 -3.22788 -8.68705 5.66842 2.94749 -9.59763 -7.14182 
-36.2732 82.684 -51.9612 85.2654 -34.8221 87.6322 -152.04 50.4174 82.516 -58.3971 15.3392 -8.63133 68.4437 9.27372 3.24731 24.2383 -3.68199 0.441106 173.147 52.2131 90.4969 -62.4703 1.62662 -0.117519 65.3 -4.16987 -2.31 37.8649 0.395591 -3.87812 1.1187 10.4108 -90.5923 6.06123 1.98563 -1.22574 -5.60889 1.92977 -1.31196 -28.1548 2.26218 -0.572081 -8.14219 2.26219 -0.572092 86.7293 -39.8237 -109.109 8.93481 7.30855 -20.2559 -1.22553 -11.1024 -41.8547 -8.06698 -0.443372 -0.183292 -100.673 -42.541 60.0053 0.91527 14.4595 -36.6606 5.18529 5.20307 -54.622 18.6648 1.09838 2.02672 -2.43469 -9.83584 6.43347 3.08027 -10.9333 -8.43564 
-36.2968 77.9577 -49.3701 86.6986 -31.123 87.4553 -145.748 54.6361 77.3304 -70.2458 17.0481 -6.39092 71.6825 12.7447 2.81314 25.8013 -2.34826 -0.116623 169.355 56.7375 92.437 -74.8155 5.43913 -0.124278 72.8456 -7.85464 -3.85341 35.6947 0.358459 -3.0116 1.02419 10.8217 -90.6269 5.23829 1.787 -1.26619 -6.43212 1.72954 -1.34362 -28.9754 2.0849 -0.670448 -8.96271 2.08489 -0.670444 86.5819 -41.3366 -108.814 7.0293 8.46497 -20.1225 1.03926 -7.87355 -42.0932 -10.8902 -0.569028 0.375507 -101.598 -40.5523 57.6625 4.65123 11.7723 -46.2511 4.38408 8.03035 -48.7369 15.0902 1.09104 3.28126 -3.01361 -11.2298 4.16221 4.04449 -12.176 -8.65624 
